<svg id="icons" enable-background="new 0 0 64 64" height="512" viewBox="0 0 64 64" width="512" xmlns="http://www.w3.org/2000/svg"><g><g><path d="m32 61.341c-.266 0-.52-.105-.707-.293l-25.68-25.682c-3.62-3.619-5.613-8.43-5.613-13.548s1.993-9.928 5.613-13.547c3.617-3.619 8.429-5.611 13.546-5.611 4.791 0 9.313 1.746 12.841 4.938 3.528-3.192 8.051-4.938 12.842-4.938 5.116 0 9.928 1.992 13.545 5.611 3.62 3.619 5.613 8.429 5.613 13.547 0 5.117-1.993 9.929-5.613 13.548l-25.68 25.682c-.187.187-.441.293-.707.293zm-12.841-56.681c-4.583 0-8.892 1.784-12.132 5.025-3.242 3.242-5.027 7.55-5.027 12.133s1.785 8.893 5.027 12.134l24.973 24.975 24.973-24.975c3.242-3.241 5.027-7.551 5.027-12.134s-1.785-8.892-5.027-12.133c-3.24-3.241-7.549-5.025-12.131-5.025-4.583 0-8.893 1.784-12.135 5.025-.391.391-1.023.391-1.414 0-3.241-3.241-7.55-5.025-12.134-5.025z"/></g><g><g><path d="m32.004 25.721c-2.206 0-4-1.794-4-4s1.794-4 4-4 4 1.794 4 4-1.794 4-4 4zm0-6c-1.103 0-2 .897-2 2s.897 2 2 2 2-.897 2-2-.898-2-2-2z"/></g><g><path d="m24 46.724c-.118 0-.239-.021-.356-.065-.516-.196-.774-.774-.578-1.291l8.002-21.002c.197-.516.773-.776 1.291-.578.516.196.774.774.578 1.291l-8.002 21.001c-.153.399-.533.644-.935.644z"/></g><g><path d="m24 47.723c-.553 0-1-.447-1-1v-9.007c0-.553.447-1 1-1s1 .447 1 1v9.007c0 .552-.447 1-1 1z"/></g><g><path d="m40.009 46.724c-.402 0-.782-.245-.935-.644l-8.002-21.002c-.196-.517.063-1.095.578-1.291.516-.198 1.094.063 1.291.578l8.002 21.002c.196.517-.063 1.095-.578 1.291-.117.045-.238.066-.356.066z"/></g><g><path d="m24 38.716c-.118 0-.239-.021-.356-.065-.516-.196-.774-.774-.578-1.291l5.478-14.377c.196-.516.773-.776 1.291-.578.516.196.774.774.578 1.291l-5.478 14.377c-.153.398-.533.643-.935.643z"/></g><g><path d="m40.009 38.716c-.402 0-.782-.245-.935-.644l-5.479-14.378c-.196-.517.063-1.095.578-1.291.515-.2 1.094.063 1.291.578l5.479 14.378c.196.517-.063 1.095-.578 1.291-.117.045-.238.066-.356.066z"/></g><g><path d="m40.009 47.723c-.553 0-1-.447-1-1v-9.007c0-.553.447-1 1-1s1 .447 1 1v9.007c0 .552-.447 1-1 1z"/></g><g><path d="m32.004 19.721c-.553 0-1-.447-1-1v-4.002c0-.553.447-1 1-1s1 .447 1 1v4.002c0 .552-.447 1-1 1z"/></g><g><path d="m36.199 36.725h-8.39c-.553 0-1-.447-1-1s.447-1 1-1h8.39c.553 0 1 .447 1 1s-.447 1-1 1z"/></g><g><path d="m32.023 22.723c-.553 0-1.005-.447-1.005-1s.442-1 .994-1h.011c.552 0 1 .447 1 1s-.448 1-1 1z"/></g><g><path d="m32.002 37.719c-.553 0-1-.447-1-1v-1.999c0-.553.447-1 1-1s1 .447 1 1v1.999c0 .552-.447 1-1 1z"/></g></g><g><g><path d="m49.006 25.729c-.553 0-1-.447-1-1s.447-1 1-1c2.757 0 5-2.243 5-5s-2.243-5-5-5c-.553 0-1-.447-1-1s.447-1 1-1c3.859 0 7 3.141 7 7s-3.141 7-7 7z"/></g><g><path d="m48.506 22.729c-3.032 0-5.5-2.468-5.5-5.5s2.468-5.5 5.5-5.5c.553 0 1 .447 1 1s-.447 1-1 1c-1.93 0-3.5 1.57-3.5 3.5s1.57 3.5 3.5 3.5c.553 0 1 .447 1 1s-.447 1-1 1z"/></g><g><path d="m48.506 19.733c-1.38 0-2.502-1.122-2.502-2.502s1.122-2.502 2.502-2.502c.553 0 1 .447 1 1s-.447 1-1 1c-.276 0-.502.226-.502.502s.226.502.502.502c.553 0 1 .447 1 1s-.447 1-1 1z"/></g><g><path d="m49.006 22.729c-.553 0-1-.447-1-1s.447-1 1-1c1.103 0 2-.897 2-2s-.897-2-2-2c-.553 0-1-.447-1-1s.447-1 1-1c2.206 0 4 1.794 4 4s-1.794 4-4 4z"/></g><g><path d="m49.006 44.334c-.553 0-1-.447-1-1v-18.605c0-.553.447-1 1-1s1 .447 1 1v18.604c0 .554-.447 1.001-1 1.001z"/></g><g><path d="m55.006 38.333c-.553 0-1-.447-1-1v-18.604c0-.553.447-1 1-1s1 .447 1 1v18.604c0 .553-.447 1-1 1z"/></g><g><path d="m49.004 22.729c-.553 0-1-.447-1-1v-2.996c0-.553.447-1 1-1s1 .447 1 1v2.996c0 .553-.447 1-1 1z"/></g><g><path d="m49.004 19.733h-.498c-.553 0-1-.447-1-1s.447-1 1-1h.498c.553 0 1 .447 1 1s-.447 1-1 1z"/></g><g><path d="m49.006 22.729h-.5c-.553 0-1-.447-1-1s.447-1 1-1h.5c.553 0 1 .447 1 1s-.447 1-1 1z"/></g><g><path d="m49.006 16.729h-.5c-.553 0-1-.447-1-1s.447-1 1-1h.5c.553 0 1 .447 1 1s-.447 1-1 1z"/></g><g><path d="m44.006 49.334c-.553 0-1-.447-1-1v-31.105c0-.553.447-1 1-1s1 .447 1 1v31.104c0 .554-.447 1.001-1 1.001z"/></g><g><path d="m49.006 13.729h-.5c-.553 0-1-.447-1-1s.447-1 1-1h.5c.553 0 1 .447 1 1s-.447 1-1 1z"/></g></g><g><g><path d="m14.994 25.729c-3.859 0-7-3.141-7-7s3.141-7 7-7c.553 0 1 .447 1 1s-.447 1-1 1c-2.757 0-5 2.243-5 5s2.243 5 5 5c.553 0 1 .447 1 1s-.447 1-1 1z"/></g><g><path d="m15.494 22.729c-.553 0-1-.447-1-1s.447-1 1-1c1.93 0 3.5-1.57 3.5-3.5s-1.57-3.5-3.5-3.5c-.553 0-1-.447-1-1s.447-1 1-1c3.032 0 5.5 2.468 5.5 5.5s-2.468 5.5-5.5 5.5z"/></g><g><path d="m15.494 19.733c-.553 0-1-.447-1-1s.447-1 1-1c.276 0 .502-.226.502-.502s-.226-.502-.502-.502c-.553 0-1-.447-1-1s.447-1 1-1c1.38 0 2.502 1.122 2.502 2.502s-1.122 2.502-2.502 2.502z"/></g><g><path d="m14.994 22.729c-2.206 0-4-1.794-4-4s1.794-4 4-4c.553 0 1 .447 1 1s-.447 1-1 1c-1.103 0-2 .897-2 2s.897 2 2 2c.553 0 1 .447 1 1s-.447 1-1 1z"/></g><g><path d="m14.994 44.334c-.553 0-1-.447-1-1v-18.605c0-.553.447-1 1-1s1 .447 1 1v18.604c0 .554-.447 1.001-1 1.001z"/></g><g><path d="m8.994 38.333c-.553 0-1-.447-1-1v-18.604c0-.553.447-1 1-1s1 .447 1 1v18.604c0 .553-.447 1-1 1z"/></g><g><path d="m14.996 22.729c-.553 0-1-.447-1-1v-2.996c0-.553.447-1 1-1s1 .447 1 1v2.996c0 .553-.447 1-1 1z"/></g><g><path d="m15.494 19.733h-.498c-.553 0-1-.447-1-1s.447-1 1-1h.498c.553 0 1 .447 1 1s-.447 1-1 1z"/></g><g><path d="m15.494 22.729h-.5c-.553 0-1-.447-1-1s.447-1 1-1h.5c.553 0 1 .447 1 1s-.447 1-1 1z"/></g><g><path d="m15.494 16.729h-.5c-.553 0-1-.447-1-1s.447-1 1-1h.5c.553 0 1 .447 1 1s-.447 1-1 1z"/></g><g><path d="m19.994 49.334c-.553 0-1-.447-1-1v-31.105c0-.553.447-1 1-1s1 .447 1 1v31.104c0 .554-.447 1.001-1 1.001z"/></g><g><path d="m15.494 13.729h-.5c-.553 0-1-.447-1-1s.447-1 1-1h.5c.553 0 1 .447 1 1s-.447 1-1 1z"/></g></g></g></svg>